<svg width="350pt" height="260pt" viewBox="0.00 0.00 350.00 260.00" xmlns="http://www.w3.org/2000/svg"><g class="graph" transform="translate(4 256)"><title>%3</title><path fill="#fff" d="M-4 4v-260h350V4H-4z"/><g class="node"><title>1:1</title><ellipse fill="none" stroke="#000" cx="243" cy="-234" rx="27" ry="18"/><text text-anchor="middle" x="243" y="-229.8" font-family="Times,serif" font-size="14">1:1</text></g><g class="node"><title>2:1</title><ellipse fill="none" stroke="#000" cx="171" cy="-162" rx="27" ry="18"/><text text-anchor="middle" x="171" y="-157.8" font-family="Times,serif" font-size="14">2:1</text></g><g class="edge"><title>1:1--2:1</title><path fill="none" stroke="#000" d="M228.43-218.834a938703.15 938703.15 0 0 0-42.634 41.449"/></g><g class="node"><title>2:2</title><ellipse fill="none" stroke="#000" cx="243" cy="-162" rx="27" ry="18"/><text text-anchor="middle" x="243" y="-157.8" font-family="Times,serif" font-size="14">2:2</text></g><g class="edge"><title>1:1--2:2</title><path fill="none" stroke="#000" d="M243-215.697v35.593"/></g><g class="node"><title>2:3</title><ellipse fill="none" stroke="#000" cx="315" cy="-162" rx="27" ry="18"/><text text-anchor="middle" x="315" y="-157.8" font-family="Times,serif" font-size="14">2:3</text></g><g class="edge"><title>1:1--2:3</title><path fill="none" stroke="#000" d="M257.57-218.834a938703.15 938703.15 0 0 1 42.634 41.449"/></g><g class="node"><title>3:1</title><ellipse fill="none" stroke="#000" cx="99" cy="-90" rx="27" ry="18"/><text text-anchor="middle" x="99" y="-85.8" font-family="Times,serif" font-size="14">3:1</text></g><g class="edge"><title>2:1--3:1</title><path fill="none" stroke="#000" d="M156.43-146.834a938703.15 938703.15 0 0 0-42.634 41.449"/></g><g class="node"><title>3:2</title><ellipse fill="none" stroke="#000" cx="171" cy="-90" rx="27" ry="18"/><text text-anchor="middle" x="171" y="-85.8" font-family="Times,serif" font-size="14">3:2</text></g><g class="edge"><title>2:1--3:2</title><path fill="none" stroke="#000" d="M171-143.697v35.593"/></g><g class="node"><title>3:3</title><ellipse fill="none" stroke="#000" cx="243" cy="-90" rx="27" ry="18"/><text text-anchor="middle" x="243" y="-85.8" font-family="Times,serif" font-size="14">3:3</text></g><g class="edge"><title>2:1--3:3</title><path fill="none" stroke="#000" d="M185.57-146.834a938703.15 938703.15 0 0 1 42.634 41.449"/></g><g class="node"><title>4:1</title><ellipse fill="none" stroke="#000" cx="27" cy="-18" rx="27" ry="18"/><text text-anchor="middle" x="27" y="-13.8" font-family="Times,serif" font-size="14">4:1</text></g><g class="edge"><title>3:1--4:1</title><path fill="none" stroke="#000" d="M84.43-74.835l-42.634 41.45"/></g><g class="node"><title>4:2</title><ellipse fill="none" stroke="#000" cx="99" cy="-18" rx="27" ry="18"/><text text-anchor="middle" x="99" y="-13.8" font-family="Times,serif" font-size="14">4:2</text></g><g class="edge"><title>3:1--4:2</title><path fill="none" stroke="#000" d="M99-71.697v35.593"/></g><g class="node"><title>4:3</title><ellipse fill="none" stroke="#000" cx="171" cy="-18" rx="27" ry="18"/><text text-anchor="middle" x="171" y="-13.8" font-family="Times,serif" font-size="14">4:3</text></g><g class="edge"><title>3:1--4:3</title><path fill="none" stroke="#000" d="M113.57-74.835l42.634 41.45"/></g></g></svg>