<?xml version="1.0" encoding="UTF-8" standalone="no"?>
<!DOCTYPE svg PUBLIC "-//W3C//DTD SVG 1.1//EN"
 "http://www.w3.org/Graphics/SVG/1.1/DTD/svg11.dtd">
<!-- Generated by graphviz version 2.38.0 (20140413.2041)
 -->
<!-- Title: G Pages: 1 -->
<svg width="287pt" height="210pt"
 viewBox="0.00 0.00 287.00 210.00" xmlns="http://www.w3.org/2000/svg" xmlns:xlink="http://www.w3.org/1999/xlink">
<g id="graph0" class="graph" transform="scale(1 1) rotate(0) translate(4 206)">
<title>G</title>
<polygon fill="white" stroke="none" points="-4,4 -4,-206 283,-206 283,4 -4,4"/>
<!-- B1 -->
<g id="node1" class="node"><title>B1</title>
<polygon fill="none" stroke="black" points="45,-31.5 45,-75.5 99,-75.5 99,-31.5 45,-31.5"/>
<text text-anchor="middle" x="72" y="-60.3" font-family="Times,serif" font-size="14.00">B0</text>
<polyline fill="none" stroke="black" points="45,-53.5 99,-53.5 "/>
<text text-anchor="middle" x="72" y="-38.3" font-family="Times,serif" font-size="14.00">2</text>
</g>
<!-- B3 -->
<g id="node3" class="node"><title>B3</title>
<polygon fill="none" stroke="black" points="135,-0.5 135,-44.5 189,-44.5 189,-0.5 135,-0.5"/>
<text text-anchor="middle" x="162" y="-29.3" font-family="Times,serif" font-size="14.00">B2</text>
<polyline fill="none" stroke="black" points="135,-22.5 189,-22.5 "/>
<text text-anchor="middle" x="162" y="-7.3" font-family="Times,serif" font-size="14.00">1</text>
</g>
<!-- B1&#45;&gt;B3 -->
<g id="edge1" class="edge"><title>B1:f1&#45;&gt;B3:f0</title>
<path fill="none" stroke="black" d="M99,-42.5C111.498,-42.5 116.257,-37.3315 125.006,-34.828"/>
<polygon fill="black" stroke="black" points="125.548,-38.2868 135,-33.5 124.626,-31.3478 125.548,-38.2868"/>
</g>
<!-- B2 -->
<g id="node2" class="node"><title>B2</title>
<polygon fill="none" stroke="black" points="225,-20.5 225,-64.5 279,-64.5 279,-20.5 225,-20.5"/>
<text text-anchor="middle" x="252" y="-49.3" font-family="Times,serif" font-size="14.00">B1</text>
<polyline fill="none" stroke="black" points="225,-42.5 279,-42.5 "/>
<text text-anchor="middle" x="252" y="-27.3" font-family="Times,serif" font-size="14.00">0</text>
</g>
<!-- B2&#45;&gt;B1 -->
<g id="edge3" class="edge"><title>B2:f1&#45;&gt;B1:f0</title>
<path fill="none" stroke="black" d="M225,-31.5C206.249,-31.5 206.708,-47.3337 189,-53.5 154.363,-65.5612 141.603,-64.7795 109.208,-64.5417"/>
<polygon fill="black" stroke="black" points="109.014,-61.0409 99,-64.5 108.986,-68.0409 109.014,-61.0409"/>
</g>
<!-- B3&#45;&gt;B2 -->
<g id="edge2" class="edge"><title>B3:f1&#45;&gt;B2:f0</title>
<path fill="none" stroke="black" d="M189,-11.5C209.36,-11.5 203.827,-40.3032 215.286,-50.2043"/>
<polygon fill="black" stroke="black" points="214.406,-53.6016 225,-53.5 216.655,-46.9727 214.406,-53.6016"/>
</g>
<!-- B4 -->
<g id="node4" class="node"><title>B4</title>
<polygon fill="none" stroke="black" points="45,-94.5 45,-138.5 99,-138.5 99,-94.5 45,-94.5"/>
<text text-anchor="middle" x="72" y="-123.3" font-family="Times,serif" font-size="14.00">B3</text>
<polyline fill="none" stroke="black" points="45,-116.5 99,-116.5 "/>
<text text-anchor="middle" x="72" y="-101.3" font-family="Times,serif" font-size="14.00">3</text>
</g>
<!-- B4&#45;&gt;B4 -->
<g id="edge4" class="edge"><title>B4:f1&#45;&gt;B4:f0</title>
<path fill="none" stroke="black" d="M44.666,-100.035C22.6875,-98.4531 0,-102.75 0,-116.5 0,-128.155 16.3014,-133.018 34.6545,-133.266"/>
<polygon fill="black" stroke="black" points="34.7757,-136.764 44.666,-132.965 34.5653,-129.767 34.7757,-136.764"/>
</g>
<!-- start -->
<g id="node5" class="node"><title>start</title>
<polygon fill="none" stroke="black" points="45,-157.5 45,-201.5 99,-201.5 99,-157.5 45,-157.5"/>
<text text-anchor="middle" x="72" y="-186.3" font-family="Times,serif" font-size="14.00">id</text>
<polyline fill="none" stroke="black" points="45,-179.5 99,-179.5 "/>
<text text-anchor="middle" x="72" y="-164.3" font-family="Times,serif" font-size="14.00">ticket</text>
</g>
</g>
</svg>
