<?xml version="1.0" encoding="UTF-8" standalone="no"?>
<!DOCTYPE svg PUBLIC "-//W3C//DTD SVG 1.1//EN"
 "http://www.w3.org/Graphics/SVG/1.1/DTD/svg11.dtd">
<!-- Generated by graphviz version 2.38.0 (20140413.2041)
 -->
<!-- Title: G Pages: 1 -->
<svg width="197pt" height="242pt"
 viewBox="0.00 0.00 197.00 242.00" xmlns="http://www.w3.org/2000/svg" xmlns:xlink="http://www.w3.org/1999/xlink">
<g id="graph0" class="graph" transform="scale(1 1) rotate(0) translate(4 238)">
<title>G</title>
<polygon fill="white" stroke="none" points="-4,4 -4,-238 193,-238 193,4 -4,4"/>
<!-- B0 -->
<g id="node1" class="node"><title>B0</title>
<polygon fill="none" stroke="black" points="45,-0.5 45,-44.5 99,-44.5 99,-0.5 45,-0.5"/>
<text text-anchor="middle" x="72" y="-29.3" font-family="Times,serif" font-size="14.00">B0</text>
<polyline fill="none" stroke="black" points="45,-22.5 99,-22.5 "/>
<text text-anchor="middle" x="72" y="-7.3" font-family="Times,serif" font-size="14.00">0</text>
</g>
<!-- B0&#45;&gt;B0 -->
<g id="edge1" class="edge"><title>B0:f1&#45;&gt;B0:f0</title>
<path fill="none" stroke="black" d="M44.666,-6.03491C22.6875,-4.45312 0,-8.75 0,-22.5 0,-34.1553 16.3014,-39.0183 34.6545,-39.2661"/>
<polygon fill="black" stroke="black" points="34.7757,-42.7641 44.666,-38.9651 34.5653,-35.7673 34.7757,-42.7641"/>
</g>
<!-- B1 -->
<g id="node2" class="node"><title>B1</title>
<polygon fill="none" stroke="black" points="45,-63.5 45,-107.5 99,-107.5 99,-63.5 45,-63.5"/>
<text text-anchor="middle" x="72" y="-92.3" font-family="Times,serif" font-size="14.00">B1</text>
<polyline fill="none" stroke="black" points="45,-85.5 99,-85.5 "/>
<text text-anchor="middle" x="72" y="-70.3" font-family="Times,serif" font-size="14.00">1</text>
</g>
<!-- B1&#45;&gt;B1 -->
<g id="edge2" class="edge"><title>B1:f1&#45;&gt;B1:f0</title>
<path fill="none" stroke="black" d="M44.666,-69.0349C22.6875,-67.4531 0,-71.75 0,-85.5 0,-97.1553 16.3014,-102.018 34.6545,-102.266"/>
<polygon fill="black" stroke="black" points="34.7757,-105.764 44.666,-101.965 34.5653,-98.7673 34.7757,-105.764"/>
</g>
<!-- B2 -->
<g id="node3" class="node"><title>B2</title>
<polygon fill="none" stroke="black" points="45,-126.5 45,-170.5 99,-170.5 99,-126.5 45,-126.5"/>
<text text-anchor="middle" x="72" y="-155.3" font-family="Times,serif" font-size="14.00">B2</text>
<polyline fill="none" stroke="black" points="45,-148.5 99,-148.5 "/>
<text text-anchor="middle" x="72" y="-133.3" font-family="Times,serif" font-size="14.00">4</text>
</g>
<!-- B4 -->
<g id="node5" class="node"><title>B4</title>
<polygon fill="none" stroke="black" points="135,-104.5 135,-148.5 189,-148.5 189,-104.5 135,-104.5"/>
<text text-anchor="middle" x="162" y="-133.3" font-family="Times,serif" font-size="14.00">B4</text>
<polyline fill="none" stroke="black" points="135,-126.5 189,-126.5 "/>
<text text-anchor="middle" x="162" y="-111.3" font-family="Times,serif" font-size="14.00">2</text>
</g>
<!-- B2&#45;&gt;B4 -->
<g id="edge3" class="edge"><title>B2:f1&#45;&gt;B4:f0</title>
<path fill="none" stroke="black" d="M99,-137.5C111,-137.5 116.25,-137.5 124.875,-137.5"/>
<polygon fill="black" stroke="black" points="125,-141 135,-137.5 125,-134 125,-141"/>
</g>
<!-- B3 -->
<g id="node4" class="node"><title>B3</title>
<polygon fill="none" stroke="black" points="45,-189.5 45,-233.5 99,-233.5 99,-189.5 45,-189.5"/>
<text text-anchor="middle" x="72" y="-218.3" font-family="Times,serif" font-size="14.00">B3</text>
<polyline fill="none" stroke="black" points="45,-211.5 99,-211.5 "/>
<text text-anchor="middle" x="72" y="-196.3" font-family="Times,serif" font-size="14.00">3</text>
</g>
<!-- B3&#45;&gt;B3 -->
<g id="edge4" class="edge"><title>B3:f1&#45;&gt;B3:f0</title>
<path fill="none" stroke="black" d="M44.666,-195.035C22.6875,-193.453 0,-197.75 0,-211.5 0,-223.155 16.3014,-228.018 34.6545,-228.266"/>
<polygon fill="black" stroke="black" points="34.7757,-231.764 44.666,-227.965 34.5653,-224.767 34.7757,-231.764"/>
</g>
<!-- B4&#45;&gt;B2 -->
<g id="edge5" class="edge"><title>B4:f1&#45;&gt;B2:f0</title>
<path fill="none" stroke="black" d="M135,-115.5C113.878,-115.5 120.569,-146.247 108.574,-156.336"/>
<polygon fill="black" stroke="black" points="107.396,-153.038 99,-159.5 109.593,-159.685 107.396,-153.038"/>
</g>
</g>
</svg>
